<svg width="56" height="56" viewBox="0 0 56 56" fill="none" xmlns="http://www.w3.org/2000/svg">
<path d="M40.7923 13.163H44.5127M16.6101 2.00195H38.9322C47.1509 2.00195 53.8135 8.66457 53.8135 16.8833V39.2054C53.8135 47.4241 47.1509 54.0867 38.9322 54.0867H16.6101C8.39137 54.0867 1.72876 47.4241 1.72876 39.2054V16.8833C1.72876 8.66457 8.39137 2.00195 16.6101 2.00195ZM27.7711 39.2054C21.6071 39.2054 16.6101 34.2084 16.6101 28.0443C16.6101 21.8803 21.6071 16.8833 27.7711 16.8833C33.9352 16.8833 38.9322 21.8803 38.9322 28.0443C38.9322 34.2084 33.9352 39.2054 27.7711 39.2054Z" stroke="#FF4E00" stroke-width="3"/>
</svg>
