<svg width="56" height="56" viewBox="0 0 56 56" fill="none" xmlns="http://www.w3.org/2000/svg">
<path d="M17.6122 2.00195H9.35596C5.24659 2.00195 1.91528 5.33326 1.91528 9.44263V16.8833C1.91528 37.4302 18.5718 54.0867 39.1187 54.0867H46.5594C50.6687 54.0867 54.0001 50.7554 54.0001 46.646V41.5047C54.0001 40.0955 53.2039 38.8073 51.9435 38.1771L42.9554 33.683C40.9304 32.6705 38.4781 33.6863 37.7622 35.8341L36.6544 39.1575C35.9368 41.3102 33.7286 42.5917 31.5035 42.1467C22.5977 40.3656 15.6364 33.4043 13.8553 24.4985C13.4103 22.2734 14.6918 20.0652 16.8445 19.3476L20.969 17.9728C22.8132 17.358 23.8732 15.427 23.4018 13.541L21.2215 4.81998C20.8074 3.16381 19.3194 2.00195 17.6122 2.00195Z" stroke="#FF4E00" stroke-width="3"/>
</svg>
