<svg width="57" height="48" viewBox="0 0 57 48" fill="none" xmlns="http://www.w3.org/2000/svg">
<path d="M54.4619 1.7207L55.9586 1.62147C55.9187 1.01976 55.5224 0.500436 54.9525 0.303202C54.3826 0.105968 53.7501 0.269175 53.3467 0.717493L54.4619 1.7207ZM52.2473 12.7288C52.2473 11.9004 51.5757 11.2288 50.7473 11.2288C49.9189 11.2288 49.2473 11.9004 49.2473 12.7288H52.2473ZM28.4597 13.0346H26.9597V13.0346L28.4597 13.0346ZM28.4597 16.6021L29.9597 16.6021V16.6021L28.4597 16.6021ZM2.45752 42.6445V41.1445C1.79672 41.1445 1.21375 41.5769 1.02204 42.2093C0.830321 42.8416 1.07502 43.525 1.62458 43.8919L2.45752 42.6445ZM6.17212 1.7207L7.57688 1.19473C7.36758 0.635723 6.84675 0.254014 6.25066 0.222761C5.65457 0.191507 5.09668 0.516657 4.83006 1.05071L6.17212 1.7207ZM21.0305 35.2038L22.092 36.2636C22.4591 35.896 22.6098 35.3645 22.4903 34.8589C22.3709 34.3533 21.9983 33.9455 21.5055 33.781L21.0305 35.2038ZM47.9054 5.34201L46.7928 6.34804L47.3333 6.94577L48.13 6.8251L47.9054 5.34201ZM52.9652 1.81993C53.1582 4.73172 52.9839 6.54631 52.4905 7.9371C52.0083 9.29654 51.1685 10.4006 49.7095 11.7987L51.7851 13.9648C53.3957 12.4215 54.6112 10.9322 55.3179 8.94008C56.0135 6.97928 56.1617 4.68402 55.9586 1.62147L52.9652 1.81993ZM52.2473 15.4394V12.7288H49.2473V15.4394H52.2473ZM26.9597 13.0346L26.9597 16.6021L29.9597 16.6021L29.9597 13.0346L26.9597 13.0346ZM26.9597 16.6021L26.9597 18.4622L29.9597 18.4622L29.9597 16.6021L26.9597 16.6021ZM39.7562 0.220703C32.6867 0.220703 26.9597 5.95987 26.9597 13.0346H29.9597C29.9597 7.61236 34.3479 3.2207 39.7562 3.2207V0.220703ZM49.2473 15.4394C49.2473 31.6928 36.0923 44.8648 19.8697 44.8648V47.8648C37.7535 47.8648 52.2473 33.3453 52.2473 15.4394H49.2473ZM4.76736 2.24668C6.75709 7.56084 14.2457 18.1021 28.4597 18.1021V15.1021C15.9286 15.1021 9.30174 5.80148 7.57688 1.19473L4.76736 2.24668ZM4.83006 1.05071C0.970657 8.78146 0.396927 16.2329 3.17367 22.5534C5.94519 28.862 11.9233 33.7447 20.5555 36.6266L21.5055 33.781C13.422 31.0823 8.25634 26.6641 5.9203 21.3467C3.58946 16.0412 3.94438 9.54131 7.51417 2.39069L4.83006 1.05071ZM19.969 34.1439C17.6832 36.4333 10.862 41.1445 2.45752 41.1445V44.1445C11.8831 44.1445 19.4251 38.9347 22.092 36.2636L19.969 34.1439ZM49.018 4.33598C46.7348 1.8109 43.4301 0.220703 39.7562 0.220703V3.2207C42.5462 3.2207 45.0538 4.42481 46.7928 6.34804L49.018 4.33598ZM48.13 6.8251C50.8738 6.40955 53.5597 4.96637 55.5771 2.72391L53.3467 0.717493C51.7758 2.46377 49.7111 3.55143 47.6808 3.85892L48.13 6.8251ZM1.62458 43.8919C7.62548 47.8987 13.9168 47.8648 19.8697 47.8648V44.8648C13.8177 44.8648 8.43335 44.8309 3.29046 41.397L1.62458 43.8919Z" fill="#FF4E00"/>
</svg>
